<mxfile host="65bd71144e">
    <diagram name="Page-1" id="S0qWBEfTinxwVEII3tIF">
        <mxGraphModel dx="760" dy="587" grid="1" gridSize="10" guides="1" tooltips="1" connect="1" arrows="1" fold="1" page="1" pageScale="1" pageWidth="827" pageHeight="1169" math="0" shadow="0">
            <root>
                <mxCell id="0"/>
                <mxCell id="1" parent="0"/>
                <mxCell id="MyjZQWcwXhGRPd_88m82-7" style="edgeStyle=orthogonalEdgeStyle;rounded=0;orthogonalLoop=1;jettySize=auto;html=1;strokeColor=#374151;exitX=1;exitY=0.25;exitDx=0;exitDy=0;entryX=0;entryY=0.25;entryDx=0;entryDy=0;" parent="1" source="MyjZQWcwXhGRPd_88m82-1" target="MyjZQWcwXhGRPd_88m82-5" edge="1">
                    <mxGeometry relative="1" as="geometry">
                        <mxPoint x="480" y="300" as="targetPoint"/>
                    </mxGeometry>
                </mxCell>
                <mxCell id="MyjZQWcwXhGRPd_88m82-24" style="edgeStyle=orthogonalEdgeStyle;shape=connector;rounded=0;orthogonalLoop=1;jettySize=auto;html=1;entryX=0.5;entryY=0;entryDx=0;entryDy=0;labelBackgroundColor=default;strokeColor=#374151;fontFamily=Lucida Console;fontSize=12;fontColor=#374151;endArrow=classic;" parent="1" source="MyjZQWcwXhGRPd_88m82-1" target="MyjZQWcwXhGRPd_88m82-9" edge="1">
                    <mxGeometry relative="1" as="geometry"/>
                </mxCell>
                <mxCell id="MyjZQWcwXhGRPd_88m82-1" value="API Gateway" style="rounded=1;whiteSpace=wrap;html=1;fontFamily=Lucida Console;fillColor=#dae8fc;strokeColor=#6c8ebf;fontColor=#374151;glass=0;shadow=0;" parent="1" vertex="1">
                    <mxGeometry x="320" y="280" width="80" height="60" as="geometry"/>
                </mxCell>
                <mxCell id="MyjZQWcwXhGRPd_88m82-2" value="" style="endArrow=classic;html=1;rounded=0;entryX=0.5;entryY=0;entryDx=0;entryDy=0;fontColor=#1A1A1A;strokeColor=#374151;" parent="1" target="MyjZQWcwXhGRPd_88m82-1" edge="1">
                    <mxGeometry width="50" height="50" relative="1" as="geometry">
                        <mxPoint x="360" y="200" as="sourcePoint"/>
                        <mxPoint x="320" y="310" as="targetPoint"/>
                    </mxGeometry>
                </mxCell>
                <mxCell id="MyjZQWcwXhGRPd_88m82-4" value="/simonaimmobilier/api/housings/1" style="text;html=1;strokeColor=none;fillColor=none;align=center;verticalAlign=middle;whiteSpace=wrap;rounded=0;fontFamily=Comic Sans MS;fontColor=#374151;fontSize=10;" parent="1" vertex="1">
                    <mxGeometry x="360" y="220" width="110" height="20" as="geometry"/>
                </mxCell>
                <mxCell id="MyjZQWcwXhGRPd_88m82-21" style="edgeStyle=orthogonalEdgeStyle;shape=connector;rounded=0;orthogonalLoop=1;jettySize=auto;html=1;entryX=0.988;entryY=0.682;entryDx=0;entryDy=0;entryPerimeter=0;labelBackgroundColor=default;strokeColor=#374151;fontFamily=Lucida Console;fontSize=12;fontColor=#374151;endArrow=classic;exitX=-0.018;exitY=0.674;exitDx=0;exitDy=0;exitPerimeter=0;" parent="1" source="MyjZQWcwXhGRPd_88m82-5" target="MyjZQWcwXhGRPd_88m82-1" edge="1">
                    <mxGeometry relative="1" as="geometry"/>
                </mxCell>
                <mxCell id="MyjZQWcwXhGRPd_88m82-5" value="&lt;div&gt;Auth service&lt;/div&gt;" style="rounded=1;whiteSpace=wrap;html=1;fontFamily=Lucida Console;fillColor=#FAFAFA;fontColor=#374151;strokeColor=#d1d5db;gradientColor=none;shadow=0;glass=0;" parent="1" vertex="1">
                    <mxGeometry x="540" y="280" width="80" height="60" as="geometry"/>
                </mxCell>
                <mxCell id="MyjZQWcwXhGRPd_88m82-29" style="edgeStyle=orthogonalEdgeStyle;shape=connector;rounded=0;orthogonalLoop=1;jettySize=auto;html=1;labelBackgroundColor=default;strokeColor=#374151;fontFamily=Lucida Console;fontSize=12;fontColor=#374151;endArrow=classic;" parent="1" source="MyjZQWcwXhGRPd_88m82-9" target="MyjZQWcwXhGRPd_88m82-23" edge="1">
                    <mxGeometry relative="1" as="geometry"/>
                </mxCell>
                <mxCell id="MyjZQWcwXhGRPd_88m82-9" value="Housing service" style="rounded=1;whiteSpace=wrap;html=1;fontFamily=Lucida Console;fillColor=#FAFAFA;fontColor=#374151;strokeColor=#d1d5db;gradientColor=none;shadow=0;glass=0;" parent="1" vertex="1">
                    <mxGeometry x="320" y="400" width="80" height="40" as="geometry"/>
                </mxCell>
                <mxCell id="MyjZQWcwXhGRPd_88m82-10" value="&lt;div style=&quot;font-size: 10px;&quot;&gt;/auth/register&lt;/div&gt;&lt;div style=&quot;font-size: 10px;&quot;&gt;&lt;br style=&quot;font-size: 10px;&quot;&gt;&lt;/div&gt;&lt;div style=&quot;font-size: 10px;&quot;&gt;/auth/login&lt;/div&gt;&lt;div style=&quot;font-size: 10px;&quot;&gt;&lt;br style=&quot;font-size: 10px;&quot;&gt;&lt;/div&gt;&lt;div style=&quot;font-size: 10px;&quot;&gt;/auth/validate&lt;br style=&quot;font-size: 10px;&quot;&gt;&lt;/div&gt;" style="text;html=1;strokeColor=none;fillColor=none;align=left;verticalAlign=middle;whiteSpace=wrap;rounded=0;fontFamily=Comic Sans MS;fontColor=#374151;fontSize=10;" parent="1" vertex="1">
                    <mxGeometry x="630" y="275" width="90" height="70" as="geometry"/>
                </mxCell>
                <mxCell id="MyjZQWcwXhGRPd_88m82-14" value="&lt;div style=&quot;font-size: 10px;&quot;&gt;/auth/validate&lt;br style=&quot;font-size: 10px;&quot;&gt;&lt;/div&gt;" style="text;html=1;strokeColor=none;fillColor=none;align=left;verticalAlign=middle;whiteSpace=wrap;rounded=0;fontFamily=Comic Sans MS;fontColor=#374151;fontSize=10;" parent="1" vertex="1">
                    <mxGeometry x="430" y="265" width="90" height="30" as="geometry"/>
                </mxCell>
                <mxCell id="MyjZQWcwXhGRPd_88m82-16" value="" style="sketch=0;outlineConnect=0;fontColor=#232F3E;gradientColor=none;fillColor=#232F3D;strokeColor=none;dashed=0;verticalLabelPosition=bottom;verticalAlign=top;align=center;html=1;fontSize=12;fontStyle=0;aspect=fixed;pointerEvents=1;shape=mxgraph.aws4.user;rounded=1;shadow=0;glass=0;fontFamily=Lucida Console;" parent="1" vertex="1">
                    <mxGeometry x="345" y="160" width="30" height="30" as="geometry"/>
                </mxCell>
                <mxCell id="MyjZQWcwXhGRPd_88m82-22" value="Token is invalid" style="text;html=1;strokeColor=none;fillColor=none;align=left;verticalAlign=middle;whiteSpace=wrap;rounded=0;fontFamily=Comic Sans MS;fontColor=#374151;fontSize=10;" parent="1" vertex="1">
                    <mxGeometry x="430" y="295" width="90" height="30" as="geometry"/>
                </mxCell>
                <mxCell id="MyjZQWcwXhGRPd_88m82-23" value="Rental sevice" style="rounded=1;whiteSpace=wrap;html=1;fontFamily=Lucida Console;fillColor=#FAFAFA;fontColor=#374151;strokeColor=#d1d5db;gradientColor=none;shadow=0;glass=0;" parent="1" vertex="1">
                    <mxGeometry x="520" y="400" width="80" height="40" as="geometry"/>
                </mxCell>
                <mxCell id="MyjZQWcwXhGRPd_88m82-25" value="1" style="ellipse;whiteSpace=wrap;html=1;aspect=fixed;strokeWidth=2;fontFamily=Lucida Console;spacingBottom=4;spacingRight=2;strokeColor=#b85450;rounded=1;shadow=0;glass=0;fontSize=12;fillColor=#f8cecc;" parent="1" vertex="1">
                    <mxGeometry x="330" y="230" width="20" height="20" as="geometry"/>
                </mxCell>
                <mxCell id="MyjZQWcwXhGRPd_88m82-26" value="2" style="ellipse;whiteSpace=wrap;html=1;aspect=fixed;strokeWidth=2;fontFamily=Lucida Console;spacingBottom=4;spacingRight=2;strokeColor=#b85450;rounded=1;shadow=0;glass=0;fontSize=12;fillColor=#f8cecc;" parent="1" vertex="1">
                    <mxGeometry x="480" y="250" width="20" height="20" as="geometry"/>
                </mxCell>
                <mxCell id="MyjZQWcwXhGRPd_88m82-27" value="3" style="ellipse;whiteSpace=wrap;html=1;aspect=fixed;strokeWidth=2;fontFamily=Lucida Console;spacingBottom=4;spacingRight=2;strokeColor=#b85450;rounded=1;shadow=0;glass=0;fontSize=12;fillColor=#f8cecc;" parent="1" vertex="1">
                    <mxGeometry x="325" y="355" width="20" height="20" as="geometry"/>
                </mxCell>
                <mxCell id="MyjZQWcwXhGRPd_88m82-28" value="3" style="ellipse;whiteSpace=wrap;html=1;aspect=fixed;strokeWidth=2;fontFamily=Lucida Console;spacingBottom=4;spacingRight=2;strokeColor=#b85450;rounded=1;shadow=0;glass=0;fontSize=12;fillColor=#f8cecc;" parent="1" vertex="1">
                    <mxGeometry x="475" y="335" width="20" height="20" as="geometry"/>
                </mxCell>
                <mxCell id="MyjZQWcwXhGRPd_88m82-30" value="4" style="ellipse;whiteSpace=wrap;html=1;aspect=fixed;strokeWidth=2;fontFamily=Lucida Console;spacingBottom=4;spacingRight=2;strokeColor=#b85450;rounded=1;shadow=0;glass=0;fontSize=12;fillColor=#f8cecc;" parent="1" vertex="1">
                    <mxGeometry x="450" y="390" width="20" height="20" as="geometry"/>
                </mxCell>
                <mxCell id="MyjZQWcwXhGRPd_88m82-31" value="1" style="ellipse;whiteSpace=wrap;html=1;aspect=fixed;strokeWidth=2;fontFamily=Lucida Console;spacingBottom=4;spacingRight=2;strokeColor=#b85450;rounded=1;shadow=0;glass=0;fontSize=12;fillColor=#f8cecc;" parent="1" vertex="1">
                    <mxGeometry x="320" y="522.5" width="27.5" height="27.5" as="geometry"/>
                </mxCell>
                <mxCell id="MyjZQWcwXhGRPd_88m82-32" value="Demander les informations de logement ayant l'id '1'" style="text;html=1;strokeColor=none;fillColor=none;align=left;verticalAlign=middle;whiteSpace=wrap;rounded=0;fontFamily=Comic Sans MS;fontColor=#374151;fontSize=10;" parent="1" vertex="1">
                    <mxGeometry x="355" y="520" width="315" height="30" as="geometry"/>
                </mxCell>
                <mxCell id="MyjZQWcwXhGRPd_88m82-33" value="2" style="ellipse;whiteSpace=wrap;html=1;aspect=fixed;strokeWidth=2;fontFamily=Lucida Console;spacingBottom=4;spacingRight=2;strokeColor=#b85450;rounded=1;shadow=0;glass=0;fontSize=12;fillColor=#f8cecc;" parent="1" vertex="1">
                    <mxGeometry x="320" y="571" width="27.5" height="27.5" as="geometry"/>
                </mxCell>
                <mxCell id="MyjZQWcwXhGRPd_88m82-34" value="Demander la vérification du token stocké dans le header 'Authorization'" style="text;html=1;strokeColor=none;fillColor=none;align=left;verticalAlign=middle;whiteSpace=wrap;rounded=0;fontFamily=Comic Sans MS;fontColor=#374151;fontSize=10;" parent="1" vertex="1">
                    <mxGeometry x="355" y="570" width="315" height="30" as="geometry"/>
                </mxCell>
                <mxCell id="MyjZQWcwXhGRPd_88m82-35" value="3" style="ellipse;whiteSpace=wrap;html=1;aspect=fixed;strokeWidth=2;fontFamily=Lucida Console;spacingBottom=4;spacingRight=2;strokeColor=#b85450;rounded=1;shadow=0;glass=0;fontSize=12;fillColor=#f8cecc;" parent="1" vertex="1">
                    <mxGeometry x="320" y="621" width="27.5" height="27.5" as="geometry"/>
                </mxCell>
                <mxCell id="MyjZQWcwXhGRPd_88m82-36" value="&lt;div&gt;Si le token est invalide, la requête a échouée.&lt;/div&gt;&lt;div&gt;Dans le cas contraire, l'API Gateway demande l'information à Housing service.&lt;br&gt;&lt;/div&gt;" style="text;html=1;strokeColor=none;fillColor=none;align=left;verticalAlign=middle;whiteSpace=wrap;rounded=0;fontFamily=Comic Sans MS;fontColor=#374151;fontSize=10;" parent="1" vertex="1">
                    <mxGeometry x="355" y="620" width="315" height="30" as="geometry"/>
                </mxCell>
                <mxCell id="MyjZQWcwXhGRPd_88m82-37" value="4" style="ellipse;whiteSpace=wrap;html=1;aspect=fixed;strokeWidth=2;fontFamily=Lucida Console;spacingBottom=4;spacingRight=2;strokeColor=#b85450;rounded=1;shadow=0;glass=0;fontSize=12;fillColor=#f8cecc;" parent="1" vertex="1">
                    <mxGeometry x="320" y="671" width="27.5" height="27.5" as="geometry"/>
                </mxCell>
                <mxCell id="MyjZQWcwXhGRPd_88m82-38" value="&lt;div&gt;Demander les locations du logement '1'&lt;br&gt;&lt;/div&gt;" style="text;html=1;strokeColor=none;fillColor=none;align=left;verticalAlign=middle;whiteSpace=wrap;rounded=0;fontFamily=Comic Sans MS;fontColor=#374151;fontSize=10;" parent="1" vertex="1">
                    <mxGeometry x="355" y="670" width="315" height="30" as="geometry"/>
                </mxCell>
                <mxCell id="MyjZQWcwXhGRPd_88m82-39" value="Les étapes pour chercher les informations d'un logement" style="text;html=1;align=center;verticalAlign=middle;whiteSpace=wrap;rounded=0;fontFamily=Comic Sans MS;fontSize=14;fillColor=#f5f5f5;fontColor=#333333;strokeColor=#666666;" parent="1" vertex="1">
                    <mxGeometry x="260" y="90" width="400" height="50" as="geometry"/>
                </mxCell>
            </root>
        </mxGraphModel>
    </diagram>
</mxfile>